<!DOCTYPE svg PUBLIC "-//W3C//DTD SVG 1.1//EN" "http://www.w3.org/Graphics/SVG/1.1/DTD/svg11.dtd">
<!-- Uploaded to: SVG Repo, www.svgrepo.com, Transformed by: SVG Repo Mixer Tools -->
<svg fill="#000000" height="800px" width="800px" version="1.1" id="Layer_1" xmlns="http://www.w3.org/2000/svg" xmlns:xlink="http://www.w3.org/1999/xlink" viewBox="-51.2 -51.2 614.40 614.40" xml:space="preserve" stroke="#000000" stroke-width="0.005120019999999999" transform="rotate(0)">
<g id="SVGRepo_bgCarrier" stroke-width="0"/>
<g id="SVGRepo_tracerCarrier" stroke-linecap="round" stroke-linejoin="round" stroke="#CCCCCC" stroke-width="15.360059999999999"/>
<g id="SVGRepo_iconCarrier"> <g transform="translate(1 1)"> <g> <path d="M510.959,416.284l-25.558-255.576v-33.705V92.869c0-4.713-3.82-8.533-8.533-8.533H33.134c-4.713,0-8.533,3.82-8.533,8.533 v34.133v33.705L-0.957,416.284c-0.502,5.023,3.442,9.382,8.491,9.382h196.267c0.445,0,0.883-0.034,1.313-0.101 c1.619-0.252,3.101-0.975,4.305-2.032c0.075-0.066,0.16-0.12,0.233-0.189c0.618-0.582,1.152-1.259,1.578-2.014 c0.002-0.003,0.004-0.005,0.005-0.008c0.214-0.379,0.4-0.778,0.556-1.194l0.365-0.974l37.83-100.871 c1.737-4.632,8.293-4.632,10.03,0l38.195,101.846c0.454,1.21,1.168,2.265,2.058,3.126c0.029,0.028,0.052,0.062,0.081,0.089 c0.438,0.412,0.93,0.757,1.443,1.068c0.941,0.57,1.982,0.979,3.094,1.152c0.43,0.067,0.869,0.101,1.313,0.101h196.267 C507.516,425.666,511.461,421.307,510.959,416.284z M263.534,169.669h17.067v51.197c0,11.145-7.124,20.628-17.067,24.143V169.669z M468.334,152.6H397.46H289.134h-34.133H109.934H41.668v-17.064h426.667V152.6z M40.881,169.669h60.193 c-3.25,42.358-30.494,78.777-69.324,94.325L40.881,169.669z M466.513,169.669l9.131,94.325 c-38.83-15.549-66.074-51.968-69.324-94.325H466.513z M41.668,101.402h426.667v17.067H41.668V101.402z M16.963,408.6l1.707-17.067 h185.617l-6.4,17.067H16.963z M234.006,312.291l-23.318,62.175H20.377l9.155-91.55c49.744-15.923,85.163-60.734,88.649-113.248 h128.286V255c0,4.713,3.82,8.533,8.533,8.533c23.563,0,42.667-19.104,42.667-42.667v-51.197h91.545 c3.549,53.456,40.186,98.932,91.34,114.078l9.072,90.72H299.313l-23.318-62.175C268.722,292.894,241.28,292.894,234.006,312.291z M312.114,408.6l-6.4-17.067h185.617l1.707,17.067H312.114z"/> </g> </g> </g>
</svg>